<?xml version="1.0" encoding="UTF-8" standalone="no"?>
<!-- Created with Inkscape (http://www.inkscape.org/) -->
<svg
   xmlns:svg="http://www.w3.org/2000/svg"
   xmlns="http://www.w3.org/2000/svg"
   xmlns:inkscape="http://www.inkscape.org/namespaces/inkscape"
   version="1.0"
   width="779.52753"
   height="779.52753"
   id="svg10384">
  <defs
     id="defs10386">
    <inkscape:perspective
       id="perspective27" />
    <clipPath
       id="clipPath4901">
      <path
         d="M 113.111,921.986 L 757.71,921.986 L 757.71,10.34 L 113.111,10.34 L 113.111,921.986 z"
         id="path4903" />
    </clipPath>
    <clipPath
       id="clipPath4893">
      <path
         d="M 488.166,465.499 L 540.235,465.499 L 540.235,413.43 L 488.166,413.43 L 488.166,465.499 z"
         id="path4895" />
    </clipPath>
    <clipPath
       id="clipPath4885">
      <path
         d="M 488.166,465.499 L 540.235,465.499 L 540.235,413.43 L 488.166,413.43 L 488.166,465.499 z"
         id="path4887" />
    </clipPath>
    <clipPath
       id="clipPath4877">
      <path
         d="M 488.166,413.431 L 540.235,413.431 L 540.235,465.5 L 488.166,465.5 L 488.166,413.431 z"
         id="path4879" />
    </clipPath>
    <clipPath
       id="clipPath4869">
      <path
         d="M 190.866,75.383 L 295.287,75.383 L 295.287,224.562 L 190.866,224.562 L 190.866,75.383 z"
         id="path4871" />
    </clipPath>
    <clipPath
       id="clipPath4861">
      <path
         d="M 190.866,103.465 L 290.551,103.465 L 290.551,223.465 L 190.866,223.465 L 190.866,103.465 z"
         id="path4863" />
    </clipPath>
    <clipPath
       id="clipPath4853">
      <path
         d="M 0,0 L 595.276,0 L 595.276,841.89 L 0,841.89 L 0,0 z"
         id="path4855" />
    </clipPath>
  </defs>
  <g
     transform="matrix(1.2327393,0,0,1.2327393,-88.36385,-92.783851)"
     id="g2415">
    <path
       d="M 106.49913,391.35566 C 106.4261,235.93297 232.3474,110.01168 387.72627,110.0701 C 543.11974,110.09931 669.11406,236.12284 669.18708,391.51631 C 669.18708,393.03519 106.52833,392.84533 106.49913,391.35566"
       id="path4915"
       style="fill:#2743a0;fill-opacity:1;fill-rule:nonzero;stroke:none" />
    <path
       d="M 669.21658,391.53107 C 669.275,546.93915 543.3391,672.86044 387.96023,672.81663 C 232.58136,672.77282 106.55783,546.7785 106.49941,391.37042"
       id="path4919"
       style="fill:#ed1c24;fill-opacity:1;fill-rule:nonzero;stroke:none" />
    <path
       d="M 224.97234,430.17482 L 242.62936,430.17482 C 253.49522,430.17482 260.41783,438.13435 260.43243,448.50366 C 260.43243,458.85835 253.52443,466.83249 242.62936,466.81789 L 224.98694,466.81789 L 224.97234,430.17482 z M 199.1075,517.97798 C 199.1075,526.60932 204.62806,531.44346 212.06183,531.44346 C 219.4956,531.45807 225.01615,526.62393 225.01615,517.97798 L 225.01615,489.61575 L 244.19206,489.61575 C 267.8662,489.63035 287.42182,473.91575 287.37801,448.67891 C 287.37801,423.95324 268.53801,407.34775 243.11132,407.33315 L 212.52918,407.33315 C 203.88323,407.33315 199.04909,412.69305 199.06369,420.81324 L 199.1075,517.97798 z M 355.11438,459.25268 C 368.76972,459.25268 374.81605,472.73277 374.81605,484.65016 C 374.84526,496.59677 368.62368,509.72635 355.12898,509.71174 C 341.64889,509.71174 335.42731,496.58216 335.4127,484.65016 C 335.4127,472.73277 341.47363,459.23807 355.11438,459.25268 M 355.11438,436.42561 C 328.84061,436.41101 310.52638,459.39872 310.54098,484.65016 C 310.55559,510.57342 328.35866,532.52421 355.14359,532.52421 C 381.92851,532.53881 399.71698,510.60263 399.71698,484.66477 C 399.71698,459.42793 381.37354,436.42561 355.11438,436.42561 M 474.34674,459.26728 C 487.98748,459.28189 494.04841,472.76198 494.04841,484.69398 C 494.06302,496.64058 487.85604,509.77016 474.36134,509.77016 C 460.86665,509.77016 454.65967,496.61137 454.64507,484.67937 C 454.64507,472.76198 460.69139,459.26728 474.34674,459.26728 M 474.33213,436.46942 C 448.05837,436.45482 429.74414,459.44254 429.75874,484.67937 C 429.77335,510.61723 447.59102,532.55342 474.37595,532.56802 C 501.14627,532.58263 518.96394,510.63184 518.94934,484.70858 C 518.94934,459.47175 500.59129,436.46942 474.33213,436.46942 M 188.44611,313.06013 C 188.44611,348.85613 212.85048,376.7072 247.93085,376.7072 C 260.72452,376.7218 286.82303,372.92459 286.80843,356.3191 C 286.79382,352.34664 283.17187,344.57697 275.4022,344.56236 C 268.30434,344.56236 262.44787,351.82087 247.91625,351.80627 C 226.65187,351.80627 215.40629,334.16385 215.40629,313.6005 C 215.39169,292.51139 226.43281,274.35781 247.87243,274.35781 C 262.38945,274.35781 267.2382,280.41874 274.33606,280.41874 C 280.71829,280.41874 285.04127,275.07344 285.02666,268.82265 C 285.02666,253.64842 260.50545,249.47149 247.87243,249.47149 C 212.6022,249.47149 188.4169,277.11809 188.44611,313.06013 M 322.80889,328.84776 C 322.79429,316.91576 328.84061,303.43567 342.49596,303.43567 C 355.64014,303.43567 361.70107,316.91576 361.70107,328.84776 C 361.70107,340.76515 355.47949,353.90934 342.51056,353.90934 C 329.04508,353.89473 322.80889,340.76515 322.80889,328.84776 M 386.55819,297.91511 C 386.55819,291.51827 386.55819,281.67474 374.62619,281.67474 C 368.59447,281.66013 363.39521,285.96851 362.70879,292.02944 C 357.18824,284.24516 348.19177,280.6232 339.02005,280.6232 C 316.20759,280.6086 297.89336,301.52246 297.92257,328.83315 C 297.92257,356.83027 315.74024,376.73641 339.06387,376.73641 C 348.57149,376.73641 356.35577,372.77855 362.738,365.15492 C 364.47596,371.71241 367.41149,375.69948 374.67,375.69948 C 386.5874,375.69948 386.5874,365.85594 386.5874,359.4591 L 386.55819,297.91511 z M 473.6019,298.64534 C 473.6019,286.36283 454.7619,280.66702 442.494,280.65241 C 422.79232,280.63781 408.78646,292.40916 408.81567,309.67185 C 408.81567,338.20934 452.01623,336.48599 452.01623,347.90683 C 452.03083,352.56571 449.78172,354.99008 442.17269,354.99008 C 430.43056,354.99008 426.09298,346.51938 416.41009,346.50478 C 409.50209,346.50478 405.70488,353.76329 405.70488,357.5751 C 405.70488,368.80608 426.45809,376.76561 440.44935,376.76561 C 461.90358,376.78022 475.89483,364.1618 475.88023,347.57092 C 475.86562,319.20869 432.63586,320.91743 432.63586,309.35055 C 432.63586,304.50181 436.62293,302.41334 441.10656,302.42795 C 449.22674,302.42795 458.74897,309.68646 463.42246,309.68646 C 469.29353,309.68646 473.6019,304.34116 473.6019,298.64534 M 552.21873,352.58031 L 552.08729,516.42988 C 552.08729,524.71072 557.4618,530.39193 564.72031,530.40653 C 571.97882,530.40653 577.17808,524.87137 577.17808,516.56132 L 577.10506,354.91706 L 577.07585,314.27232 C 577.07585,293.19781 562.54422,280.75465 543.0178,280.74004 C 535.24813,280.74004 525.55064,282.98916 520.36599,289.37139 L 520.01548,255.4886 C 520.01548,247.19316 514.83083,241.658 507.57232,241.658 C 500.31381,241.658 495.14376,247.17856 495.14376,255.4886 L 495.15836,361.9711 C 495.15836,370.28115 500.35762,375.80171 507.61613,375.80171 C 514.87464,375.80171 520.05929,370.28115 520.05929,361.98571 L 520.04469,318.59529 C 520.03008,308.91241 525.7405,301.47864 535.94915,301.47864 C 544.93101,301.47864 552.18952,307.01381 552.18952,318.59529 L 552.21873,352.58031 z"
       id="path4923"
       style="fill:#ffffff;fill-opacity:1;fill-rule:nonzero;stroke:none" />
  </g>
</svg>
